# xmcd
#
# Track frame offsets: 
#        183
#        29325
#        41790
#        57380
#        72868
#        89143
#        107083
#        121545
#        140350
#        159665
#        174140
#        188448
#
# Disc length: 2702 seconds
#
# Revision: 1
# Processed by: cddbd v1.5.2PL0 Copyright (c) Steve Scherf et al.
# Submitted via: ExactAudioCopy v0.99pb4
#
DISCID=9c0a8c0c
DTITLE=Геннадий Рагулин и группа 'Архив ресторанной музыки' - Будьте з
DTITLE=доровы!
DYEAR=1996
DGENRE=Шансон
TTITLE0=А без Подола Киев невозможен!
TTITLE1=Школа Соломона Пляра
TTITLE2=Жил на свете Хайм
TTITLE3=Если б я был султан
TTITLE4=Эх, лимончики
TTITLE5=Песенка шофёра
TTITLE6=Хороши весной в саду цветочки
TTITLE7=Фонарики ночные
TTITLE8=Годы молодые
TTITLE9=Песенка велосипедистов
TTITLE10=От зари до зари
TTITLE11=Эх! Будьте здоровы!
EXTD=
EXTT0=
EXTT1=
EXTT2=
EXTT3=
EXTT4=
EXTT5=
EXTT6=
EXTT7=
EXTT8=
EXTT9=
EXTT10=
EXTT11=
PLAYORDER=
